<svg id="Layer_1" data-name="Layer 1" xmlns="http://www.w3.org/2000/svg" viewBox="0 0 245.11 104.94"><defs><style>.cls-1{fill:#744246;}.cls-2{fill:#0c4771;}</style></defs><title>soorej-logo</title><path class="cls-1" d="M22.37,43.26a22.59,22.59,0,0,1-6.85-1,14.83,14.83,0,0,1-5.19-2.64l2-4.4a16.06,16.06,0,0,0,4.54,2.4,16.43,16.43,0,0,0,5.54,1A11.92,11.92,0,0,0,26.26,38a4.75,4.75,0,0,0,2.18-1.41,3.26,3.26,0,0,0,.69-2,2.81,2.81,0,0,0-1-2.25A7.28,7.28,0,0,0,25.54,31c-1.07-.34-2.24-.65-3.54-.94s-2.59-.63-3.88-1a16.42,16.42,0,0,1-3.54-1.52A7.77,7.77,0,0,1,12,25a7.35,7.35,0,0,1-1-4,8.23,8.23,0,0,1,1.33-4.55,9.11,9.11,0,0,1,4.05-3.32,16.74,16.74,0,0,1,6.92-1.24,22,22,0,0,1,5.45.69,15.79,15.79,0,0,1,4.71,2L31.67,19a16.52,16.52,0,0,0-4.24-1.81,15.73,15.73,0,0,0-4.19-.59,10.62,10.62,0,0,0-3.81.57,4.58,4.58,0,0,0-2.14,1.48,3.44,3.44,0,0,0-.68,2.09,2.85,2.85,0,0,0,1,2.25,7,7,0,0,0,2.58,1.33c1.06.32,2.25.63,3.55.94s2.62.65,3.91,1a16.29,16.29,0,0,1,3.53,1.49,7.3,7.3,0,0,1,2.58,2.48,7.42,7.42,0,0,1,1,4,8.18,8.18,0,0,1-1.33,4.52A9.21,9.21,0,0,1,29.31,42,17,17,0,0,1,22.37,43.26Z"/><path class="cls-1" d="M54.66,43.26a17.84,17.84,0,0,1-6.59-1.18,15.9,15.9,0,0,1-5.24-3.29,14.77,14.77,0,0,1-3.44-5,15.64,15.64,0,0,1-1.22-6.26,15.67,15.67,0,0,1,1.22-6.26,14.83,14.83,0,0,1,3.44-5A16.09,16.09,0,0,1,48.07,13a18.95,18.95,0,0,1,13.11,0,16.06,16.06,0,0,1,5.21,3.3,14.72,14.72,0,0,1,3.45,5,15.67,15.67,0,0,1,1.22,6.26,15.81,15.81,0,0,1-1.22,6.28,14.47,14.47,0,0,1-3.45,5,16.15,16.15,0,0,1-5.21,3.27A17.54,17.54,0,0,1,54.66,43.26Zm0-5a11.47,11.47,0,0,0,4.28-.78,9.71,9.71,0,0,0,3.4-2.25,10.62,10.62,0,0,0,2.25-3.4,11.06,11.06,0,0,0,.81-4.3,11.09,11.09,0,0,0-.81-4.3,10.73,10.73,0,0,0-2.25-3.4,10,10,0,0,0-3.4-2.25,11.47,11.47,0,0,0-4.28-.78,11.28,11.28,0,0,0-4.25.78A10.3,10.3,0,0,0,47,19.85a10.45,10.45,0,0,0-2.27,3.4,11.77,11.77,0,0,0,0,8.58,10.49,10.49,0,0,0,2.25,3.42,9.71,9.71,0,0,0,3.4,2.25A11.46,11.46,0,0,0,54.61,38.28Z"/><path class="cls-1" d="M91.39,43.26a17.78,17.78,0,0,1-6.58-1.18,15.8,15.8,0,0,1-5.24-3.29,14.94,14.94,0,0,1-3.45-5,15.81,15.81,0,0,1-1.22-6.26,15.85,15.85,0,0,1,1.22-6.26,15,15,0,0,1,3.45-5A16,16,0,0,1,84.81,13a18.95,18.95,0,0,1,13.11,0,16.06,16.06,0,0,1,5.21,3.3,15,15,0,0,1,3.45,5,15.85,15.85,0,0,1,1.22,6.26,16,16,0,0,1-1.22,6.28,14.74,14.74,0,0,1-3.45,5,16.15,16.15,0,0,1-5.21,3.27A17.59,17.59,0,0,1,91.39,43.26Zm0-5a11.51,11.51,0,0,0,4.28-.78A9.81,9.81,0,0,0,99,35.25a10.62,10.62,0,0,0,2.25-3.4,12,12,0,0,0,0-8.6A10.73,10.73,0,0,0,99,19.85a10.09,10.09,0,0,0-3.4-2.25,11.51,11.51,0,0,0-4.28-.78,11.28,11.28,0,0,0-4.25.78,10.34,10.34,0,0,0-3.41,2.25,10.62,10.62,0,0,0-2.27,3.4,11.9,11.9,0,0,0,0,8.58,10.49,10.49,0,0,0,2.25,3.42,9.81,9.81,0,0,0,3.4,2.25A11.51,11.51,0,0,0,91.35,38.28Z"/><path class="cls-1" d="M113.82,42.82V12.28h12.56a16.85,16.85,0,0,1,7,1.31,10,10,0,0,1,4.47,3.75,10.5,10.5,0,0,1,1.58,5.81,10.38,10.38,0,0,1-1.58,5.78,9.89,9.89,0,0,1-4.47,3.7,17,17,0,0,1-7,1.29H117l2.53-2.57V42.82ZM119.49,32,117,29.25h9.16c2.5,0,4.39-.53,5.65-1.61a5.56,5.56,0,0,0,1.9-4.49,5.5,5.5,0,0,0-1.9-4.5c-1.26-1-3.15-1.57-5.65-1.57H117l2.53-2.79ZM133.8,42.82l-7.72-11.08h6.06l7.77,11.08Z"/><path class="cls-1" d="M151.38,38.07h17.24v4.75H145.71V12.28H168V17H151.38ZM151,25h15.18v4.67H151Z"/><path class="cls-1" d="M179.7,43.26a12.67,12.67,0,0,1-5.39-1.14,10.18,10.18,0,0,1-4-3.27L173.5,35a9.31,9.31,0,0,0,2.77,2.62,6.49,6.49,0,0,0,3.3.87q4.76,0,4.75-5.63V17H173.46V12.28H190V32.53q0,5.4-2.63,8.07T179.7,43.26Z"/><path class="cls-2" d="M27,95.61a17.8,17.8,0,0,1-6.48-1.15,15.47,15.47,0,0,1-5.19-3.27,14.94,14.94,0,0,1-3.42-5,16.67,16.67,0,0,1,0-12.57,14.81,14.81,0,0,1,3.44-5,15.78,15.78,0,0,1,5.19-3.27,17.8,17.8,0,0,1,6.5-1.16,17.6,17.6,0,0,1,6.85,1.29,13.57,13.57,0,0,1,5.24,3.82L35.5,72.75a11.15,11.15,0,0,0-3.7-2.68,11,11,0,0,0-4.45-.9A11.91,11.91,0,0,0,23,70a10.26,10.26,0,0,0-3.45,2.23,9.93,9.93,0,0,0-2.26,3.4,11.92,11.92,0,0,0,0,8.64,10,10,0,0,0,2.26,3.4A10.23,10.23,0,0,0,23,89.85a11.71,11.71,0,0,0,4.39.79,11.12,11.12,0,0,0,4.45-.89A10.9,10.9,0,0,0,35.5,87l3.67,3.49a13.92,13.92,0,0,1-5.24,3.79A17.38,17.38,0,0,1,27,95.61Z"/><path class="cls-2" d="M44.62,95.18V64.64H57.19a16.76,16.76,0,0,1,7,1.31,10.1,10.1,0,0,1,4.47,3.75,10.47,10.47,0,0,1,1.57,5.8,10.35,10.35,0,0,1-1.57,5.78A10,10,0,0,1,64.15,85a17.09,17.09,0,0,1-7,1.29H47.76l2.53-2.58V95.18Zm5.67-10.87-2.53-2.7h9.17A8.52,8.52,0,0,0,62.58,80a5.58,5.58,0,0,0,1.89-4.49A5.49,5.49,0,0,0,62.58,71a8.69,8.69,0,0,0-5.65-1.57H47.76l2.53-2.8ZM64.6,95.18,56.88,84.1H63l7.76,11.08Z"/><path class="cls-2" d="M82.19,90.42H99.42v4.76H76.52V64.64H98.81v4.75H82.19Zm-.44-13.09H96.93V82H81.75Z"/><path class="cls-2" d="M101.43,95.18l13.74-30.54h5.58l13.79,30.54h-5.93L116.78,67.65h2.27L107.27,95.18Zm6.32-7.07,1.53-4.45h16.49l1.53,4.45Z"/><path class="cls-2" d="M143.09,95.18V69.44H133v-4.8h25.92v4.8H148.76V95.18Z"/><path class="cls-2" d="M163.16,95.18V64.64h5.67V95.18Z"/><path class="cls-2" d="M185.89,95.18,172.54,64.64h6.15l11.92,27.61h-3.54l12-27.61h5.67l-13.3,30.54Z"/><path class="cls-2" d="M213.68,90.42h17.24v4.76H208V64.64h22.3v4.75H213.68Zm-.43-13.09h15.18V82H213.25Z"/></svg>